<?xml version="1.0" encoding="UTF-8"?>
<svg xmlns="http://www.w3.org/2000/svg" version="1.1" width="400" height="400" viewBox="0 0 400 400"><rect x="0" y="0" width="400" height="400" fill="#ffffff"/><g transform="scale(19.048)"><g transform="translate(0,0)"><path fill-rule="evenodd" d="M8 0L8 1L9 1L9 0ZM11 0L11 1L10 1L10 2L9 2L9 3L8 3L8 8L6 8L6 9L5 9L5 8L4 8L4 10L3 10L3 9L1 9L1 8L0 8L0 9L1 9L1 10L2 10L2 11L3 11L3 12L4 12L4 13L7 13L7 12L6 12L6 11L8 11L8 15L9 15L9 12L10 12L10 13L11 13L11 12L10 12L10 11L8 11L8 9L9 9L9 10L11 10L11 11L12 11L12 10L14 10L14 11L15 11L15 12L12 12L12 15L11 15L11 14L10 14L10 15L11 15L11 17L12 17L12 18L11 18L11 19L10 19L10 20L12 20L12 21L14 21L14 20L12 20L12 18L13 18L13 19L14 19L14 18L15 18L15 19L18 19L18 20L17 20L17 21L19 21L19 20L20 20L20 21L21 21L21 19L19 19L19 17L20 17L20 18L21 18L21 17L20 17L20 16L21 16L21 15L20 15L20 14L21 14L21 12L19 12L19 13L18 13L18 11L17 11L17 10L19 10L19 9L18 9L18 8L13 8L13 6L12 6L12 5L13 5L13 3L12 3L12 5L9 5L9 4L11 4L11 2L13 2L13 0ZM9 6L9 7L10 7L10 8L9 8L9 9L11 9L11 7L12 7L12 6L11 6L11 7L10 7L10 6ZM12 8L12 9L13 9L13 8ZM20 8L20 11L21 11L21 8ZM6 9L6 10L4 10L4 12L5 12L5 11L6 11L6 10L7 10L7 9ZM16 9L16 10L15 10L15 11L16 11L16 13L15 13L15 14L14 14L14 13L13 13L13 14L14 14L14 15L13 15L13 16L12 16L12 17L13 17L13 18L14 18L14 16L15 16L15 15L16 15L16 17L15 17L15 18L17 18L17 11L16 11L16 10L17 10L17 9ZM18 15L18 16L20 16L20 15ZM8 16L8 17L9 17L9 18L10 18L10 16ZM8 20L8 21L9 21L9 20ZM15 20L15 21L16 21L16 20ZM0 0L7 0L7 7L0 7ZM1 1L1 6L6 6L6 1ZM2 2L5 2L5 5L2 5ZM14 0L21 0L21 7L14 7ZM15 1L15 6L20 6L20 1ZM16 2L19 2L19 5L16 5ZM0 14L7 14L7 21L0 21ZM1 15L1 20L6 20L6 15ZM2 16L5 16L5 19L2 19Z" fill="#000000"/></g></g></svg>
